/* XPM */
static const char *start_xpm[] = {
/* columns rows colors chars-per-pixel */
"60 36 16 1",
"@ c #2B5AF4",
"# c #D3DCF7",
"+ c #96ADF6",
"$ c #87A1F6",
"= c #F1F3F7",
"% c #E2E7F7",
"; c #597EF5",
". c #4A72F5",
"X c #3B66F5",
": c #C3D0F6",
"- c #B4C4F6",
"& c #A5B8F6",
"O c #1C4FF4",
"  c #0D43F4",
"o c #7795F5",
"* c #6889F5",
/* pixels */
"                                                            ",
"                                                            ",
"                                                            ",
"                                                            ",
"                                                            ",
"                                                            ",
"                                                            ",
"                                                            ",
"                                 ..     XoO                 ",
"                          +@     +#O    $%.                 ",
"             @+oo&&oooo#oo+o     #o    O%*                  ",
"                 ++   @=@       O%.    *-  ;                ",
"                 ++   @=@     X*o%o*-@ :X  o$               ",
"                 ++   @=@     @.$-@X=.*$    &&              ",
"                 ++   @=@  @    -o *#*%+++$o&%;             ",
"             @@@@++@@@X=X@;%X  O%X $-.:o*@O  -;             ",
"             o***--***o=o***X  ;#  -o O      O              ",
"                 ++   @=@      $$ O%. +&++++:o              ",
"                 :o   @=@      #; ;#  $+@@@@#o              ",
"                O%X   @=@      X&-:o  *+    #*              ",
"                *:    @=@        o=%o *+    #*              ",
"                :;    @=@        -*o%;*+    #*              ",
"               &o     @=@       +o  .X*-****#*              ",
"             @&;      @=@      oo     ++@@@@#*              ",
"            .oO       O-O     *.      $o    &X              ",
"                                                            ",
"                                                            ",
"                                                            ",
"                                                            ",
"                                                            ",
"                                                            ",
"                                                            ",
"                                                            ",
"                                                            ",
"                                                            ",
"                                                            "
};
